<?xml version="1.0" encoding="UTF-8"?>
<svg id="Layer_1" data-name="Layer 1" xmlns="http://www.w3.org/2000/svg" viewBox="0 0 42.66 94.58">
  <defs>
    <style>
      .cls-1, .cls-2, .cls-3, .cls-4, .cls-5 {
        fill: #fff;
      }

      .cls-1, .cls-3, .cls-6 {
        stroke-miterlimit: 10;
      }

      .cls-1, .cls-3, .cls-6, .cls-4, .cls-5 {
        stroke: #000;
        stroke-width: .25px;
      }

      .cls-1, .cls-6, .cls-4 {
        stroke-linecap: round;
      }

      .cls-6 {
        fill: none;
      }

      .cls-4, .cls-5 {
        stroke-linejoin: round;
      }
    </style>
  </defs>
  <g>
    <path class="cls-2" d="M28.37,94.45c-3.42,0-6.21-2-8.31-5.95h0s-.35-1.77-.69-4.21L.25,13.48c-.01-.1-1.64-10.88,7.7-13.3h0s.42-.06,1.09-.06c2.82,0,9.81,.93,13.98,9.55l17.29,64.85c.01,.11,1.38,12.62-4.51,17.12-.04,.03-3.47,2.81-7.44,2.81Z"/>
    <path d="M9.04,.25h0c2.79,0,9.73,.92,13.85,9.43l17.3,64.84c.01,.13,1.37,12.56-4.47,17.03-.03,.03-3.42,2.77-7.35,2.77-3.36,0-6.11-1.97-8.18-5.85-.05-.26-.38-1.95-.7-4.23L.38,13.47c-.02-.11-1.63-10.78,7.58-13.16,0,0,.41-.06,1.09-.06M9.04,0c-.71,0-1.13,.06-1.13,.06C-1.64,2.54,.13,13.51,.13,13.51L19.25,84.31c.35,2.48,.71,4.25,.71,4.25,2.47,4.65,5.59,6.02,8.42,6.02,4.06,0,7.51-2.83,7.51-2.83,6.02-4.6,4.56-17.25,4.56-17.25L23.14,9.62C18.92,.89,11.79,0,9.04,0h0Z"/>
  </g>
  <polygon class="cls-1" points="25.26 69.44 30.22 67.67 33.41 75.46 27.74 77.94 25.26 69.44"/>
  <path class="cls-4" d="M40.13,67.67l-2.83,1.42,2.12,5.31,2.83-1.77s1.42-3.54-2.12-4.96Z"/>
  <g>
    <path class="cls-2" d="M39.31,74.49c-.52,0-1.83-.33-2.84-3.35h0s-.25-1.46,.72-2.12c0,.03,1.04,.17,1.77,1.16,.72,.97,.9,2.42,.54,4.3-.04,0-.11,.01-.19,.01Z"/>
    <path d="M37.18,69.18c.27,.05,1.09,.27,1.68,1.08,.68,.93,.86,2.31,.53,4.11-.02,0-.05,0-.08,0-.49,0-1.74-.32-2.71-3.23,0-.01-.23-1.32,.59-1.96m-.06-.26c-1.06,.71-.77,2.26-.77,2.26,1.03,3.07,2.37,3.44,2.96,3.44,.18,0,.29-.04,.29-.04,1.06-5.31-2.48-5.66-2.48-5.66h0Z"/>
  </g>
  <path class="cls-3" d="M26.66,77.69l11.88-5.24s.35-1.06-1.06-1.77l-11.15,5.49,.33,1.52Z"/>
  <path class="cls-5" d="M24.2,74.05s2.48-.35,2.48,4.96l-3.54,1.77-1.77-5.31,2.83-1.42Z"/>
  <g>
    <path class="cls-2" d="M22.98,80.79c-2.77-1.6-2.21-4.22-1.84-5.27,.04-.11,.14-.15,.21-.15,.04,0,.12,.01,.17,.09,1.74,2.23,1.66,4.44,1.55,5.29l-.06,.05h-.03Z"/>
    <path d="M21.35,75.5s.05,0,.08,.04c1.68,2.15,1.62,4.34,1.54,5.1-2.5-1.5-2.14-3.81-1.7-5.07,.02-.06,.08-.06,.09-.06m0-.25c-.14,0-.27,.08-.33,.23-.4,1.14-.94,3.79,1.9,5.42,.03,.02,.06,.02,.09,.02,.09,0,.17-.06,.18-.16,.1-.76,.22-3.08-1.57-5.38-.07-.09-.17-.13-.27-.13h0Z"/>
  </g>
  <path class="cls-3" d="M30.04,73.52s-1.06-1.42-.35-2.48c0,0,1.59-1.59,2.3-.53,0,0,1.42,1.42,0,2.48,0,0-.71,.71-1.95,.53Z"/>
  <polygon class="cls-3" points="30.57 71.92 30.57 71.21 31.28 70.86 31.99 71.21 32.34 71.92 31.99 72.63 31.28 72.98 30.57 72.63 30.57 71.92"/>
  <path class="cls-1" d="M29.33,68.91s.83,1.15,2.18,1.28"/>
  <polygon class="cls-1" points="15.38 27.43 20.47 26.07 18.66 17.85 12.59 19.03 15.38 27.43"/>
  <path class="cls-4" d="M28.62,20.43l-3.13,.45-1.27-5.58,3.34-.15s3.18,2.11,1.07,5.28Z"/>
  <g>
    <path class="cls-2" d="M25.39,21c-1.15-.02-1.76-1.33-1.76-1.35-1-3.45,.29-4.3,.6-4.45,1.37,1.34,2.04,2.63,2,3.84-.03,1.12-.69,1.81-.84,1.96Z"/>
    <path d="M24.21,15.36c1.29,1.29,1.93,2.52,1.9,3.68-.03,1-.58,1.65-.77,1.84-1.02-.05-1.58-1.24-1.59-1.24,0,0,0,0,0,0-.91-3.13,.09-4.05,.45-4.28m.05-.3s-1.93,.56-.74,4.65c0,0,.64,1.42,1.9,1.42,0,0,.02,0,.03,0,0,0,2.71-2.3-1.18-6.07h0Z"/>
  </g>
  <path class="cls-3" d="M11.84,19.85l12.75-2.44s.9,.67,.13,2.06l-12.29,1.83-.59-1.44Z"/>
  <path class="cls-5" d="M11.89,24.25s2.24-1.12-.78-5.49l-3.92,.56,1.56,5.37,3.13-.45Z"/>
  <g>
    <path class="cls-2" d="M8.67,24.82s-.09-.01-.13-.04c-.9-.66-2.85-2.49-1.48-5.38,.55,.48,2,2.31,1.83,5.22,0,.13-.12,.21-.22,.21Z"/>
    <path d="M7.13,19.54c.5,.58,1.79,2.34,1.63,5.07,0,.07-.06,.09-.1,.09-.02,0-.04,0-.05-.02-1.08-.78-2.69-2.49-1.48-5.14m-.02-.3c-.07,0-.14,.04-.17,.1-1.4,2.96,.55,4.83,1.52,5.54,.06,.05,.13,.07,.2,.07,.17,0,.34-.13,.35-.33,.17-2.92-1.25-4.76-1.77-5.32-.04-.04-.09-.06-.13-.06h0Z"/>
  </g>
  <path class="cls-3" d="M17,21.36s-.07,1.77,1.12,2.24c0,0,2.22,.4,2.19-.87,0,0,.36-1.97-1.41-2.04,0,0-.99-.18-1.9,.67Z"/>
  <polygon class="cls-3" points="18.34 22.37 18.75 22.96 19.53 22.84 19.91 22.15 19.8 21.37 19.11 20.99 18.32 21.1 17.94 21.79 18.34 22.37"/>
  <path class="cls-1" d="M19.03,25.55s.03-1.42,1.07-2.3"/>
  <path class="cls-6" d="M22.08,19.88s-2.21,.62-2.12,1.42"/>
  <path class="cls-6" d="M32.49,72.05s2.24,.48,2.54-.26"/>
</svg>