<?xml version="1.0" encoding="UTF-8"?>
<svg id="Layer_1" data-name="Layer 1" xmlns="http://www.w3.org/2000/svg" viewBox="0 0 11.82 9.12">
  <defs>
    <style>
      .cls-1 {
        fill: #005a9c;
      }

      .cls-2 {
        fill: #87d5f5;
        stroke: #005a9c;
        stroke-linejoin: round;
        stroke-width: .25px;
      }
    </style>
  </defs>
  <path class="cls-2" d="M4.51,2.99c.07-.24,.1-.51,.08-.78C4.52,1.07,3.58,.16,2.44,.13,1.16,.09,.12,1.11,.13,2.38c0,.19,.03,.41,.07,.61,.02,.11,.06,.2,.11,.31,0,0,1.89,3.74,1.89,5.69,0-1.95,2.18-5.71,2.18-5.71,.05-.1,.1-.2,.13-.3Z"/>
  <path class="cls-1" d="M2.36,1.83s-.19-.39-.66-.39c0,0-.64,.03-.64,.68,0,0-.01,.54,.39,.89l.88,.77h.01s.96-.77,.96-.77c.4-.35,.39-.89,.39-.89,0-.65-.64-.68-.64-.68-.47,0-.66,.39-.66,.39h-.02Z"/>
</svg>